PathFileType	4	(X/Y/Z)	OpenSim_Sub10_CSStiffKnee_Accel.trc
DataRate	CameraRate	NumFrames	NumMarkers	Units	OrigDataRate	OrigDataStartFrame	OrigNumFrames
100	100	34	8	m	100	6131	8174
Frame#	Time	torso_imu_offset_imu	pelvis_imu_offset_imu	tibia_r_imu_offset_imu	femur_r_imu_offset_imu	tibia_l_imu_offset_imu	femur_l_imu_offset_imu	toes_r_imu_offset_imu	toes_l_imu_offset_imu
				X1	Y1	Z1	X2	Y2	Z2	X3	Y3	Z3	X4	Y4	Z4	X5	Y5	Z5	X6	Y6	Z6	X7	Y7	Z7	X8		Y8	Z8	

6131	61.30000000	7.53705681	-1.61671624	6.66100911	8.42700318	2.87082092	2.73097731	10.70787045	0.22145724	0.97994729	9.46142352	-1.23874241	-0.28914344	8.57368041	-1.65357208	1.20356181	7.12814524	5.17729872	0.54892010	5.08222499	0.21417193	9.02695952	12.15377735	0.48597484	3.97446749
6132	61.31000000	7.15357818	-1.52353385	7.11854719	8.25340744	3.01742702	2.68712604	10.57358243	-0.14054786	0.97035594	9.51933991	-1.47378912	-0.04342041	8.32677407	-2.05438721	1.19161581	7.14816264	4.68920481	0.28019355	5.07717833	0.09127498	8.93161034	11.12363742	0.30185184	4.01030936
6133	61.32000000	6.70521635	-1.59277166	7.06603518	8.06143253	3.34082940	2.61359273	10.36501183	-0.40257925	1.17515258	9.63600459	-1.63492117	0.21640441	7.99436726	-2.62972621	0.92836696	7.18673157	4.17365911	-0.01446300	5.23146457	0.09385381	8.90927029	9.82898592	-0.21867698	3.81008041
6134	61.33000000	6.02321418	-1.88290819	6.69519736	7.98995103	3.36897687	2.75401660	10.38898666	-0.42659251	1.14557534	9.82349038	-1.68319738	0.44717975	7.67002591	-3.14585453	0.48031012	7.13765619	3.69093649	-0.39587503	5.18715860	0.06793999	8.99800689	9.43447158	0.20854079	4.25326335
6135	61.34000000	5.78989203	-2.23192349	5.67372866	8.06609607	3.17281982	2.82535610	10.57513145	-0.19774607	1.14549956	10.00479852	-1.57420628	0.59238261	7.57704244	-3.42883254	0.46622700	7.03218516	3.19658759	-0.52017598	5.23498093	0.08096445	9.00220826	9.64989647	0.82783709	5.12106659
6136	61.35000000	6.62322099	-2.81606210	4.40777928	8.25282187	2.83752551	2.56915923	10.69393095	-0.00033657	1.25187423	10.05068038	-1.44480003	0.55136116	7.75234498	-3.51342254	0.39687549	7.02275196	2.81043406	-0.56503451	5.09083695	-0.09898507	9.06674317	9.37924480	2.19887767	5.68706538
6137	61.36000000	9.35359049	-3.29124546	4.40910176	8.52080740	2.59948077	2.34204367	10.55423829	0.02124058	1.53085952	10.01295630	-1.21112479	0.49851358	7.93824121	-4.17014978	0.32112683	7.18548031	2.59724629	-0.63121446	5.32868899	-0.00357251	8.94255945	7.57816563	-0.61873140	-1.83912437
6138	61.37000000	12.19071104	-3.05618513	5.40351843	8.85211642	2.41567856	2.38180017	10.49511560	0.04491988	1.57517028	10.00731228	-0.99667063	0.49380420	8.10166746	-3.48355455	-0.68706760	7.65884398	2.31675455	-0.77511705	5.19792123	0.21571270	9.20894464	12.28331778	-1.92328673	5.53067922
6139	61.38000000	13.09730378	-2.10031041	6.44900570	9.34238023	2.43847589	3.08734256	10.78683999	0.03844106	1.73165614	10.23565815	-0.96479015	0.29421131	10.50279447	-1.94233729	-2.02740042	8.32274963	1.76452245	-0.18106190	5.07551368	0.24132262	9.39053738	17.09805555	-3.04468099	18.04357061
6140	61.39000000	12.23586092	-1.22763877	7.17656804	9.85955220	2.37082488	4.73659798	11.34746466	-0.29499813	2.16589146	10.62789932	-1.09378605	0.01652425	14.71298970	-0.51271106	-1.33549188	10.95423096	1.62030104	0.67074143	5.11629528	0.43056741	10.14661552	18.00818647	5.67909973	19.67560181
6141	61.40000000	11.15829292	-1.12323605	7.24202809	10.98761847	1.74504514	6.37898024	12.25702088	-1.13744965	2.32377968	11.24715501	-1.39170113	-0.34851476	18.24276620	0.87637000	2.75705157	15.83319551	2.84281594	0.20828749	4.39427677	-0.43650051	10.43307133	13.89404535	8.05172287	17.07433505
6142	61.41000000	11.29899884	-1.23849810	6.52646785	12.85121241	0.66010523	7.01244121	13.47426764	-2.36087073	2.64450868	11.88559177	-1.66854557	-0.69295304	17.85219324	-0.50966003	5.31883998	21.61505346	4.92759124	-1.31192892	4.04179839	-0.80063920	10.72898829	7.64119827	-4.01954482	15.47970026
6143	61.42000000	12.52684991	-0.83259345	5.91331216	14.49307620	-0.76751361	6.52893881	14.65002820	-3.51551665	3.24852788	12.17006563	-1.50226764	-0.86257001	13.80694838	-4.35529174	3.67755395	19.96211587	5.05862029	-2.93654831	3.06324479	-1.38939009	10.92706802	6.00907750	-5.19820363	12.49895132
6144	61.43000000	13.41547270	0.11464717	5.93413900	14.60196719	-1.40428911	5.75599211	15.13999975	-4.16972401	4.02017307	11.84908024	-0.80370862	-0.55297292	10.65536155	-8.21587601	3.54005156	13.57961782	3.26620593	-3.30550847	2.40058545	-2.41859771	10.09406573	8.92402373	0.74114993	11.58603172
6145	61.44000000	13.03362077	1.01693505	6.11671090	12.77410184	-0.97055481	5.75028970	14.74884769	-4.27098644	4.37914995	11.33221390	-0.13470755	0.04517415	8.32778074	-11.63987321	2.87790315	9.56675223	1.50331921	-2.11320455	5.62099413	-2.32712434	10.61644610	8.47122646	-1.92214457	10.70817307
6146	61.45000000	11.81213691	1.40268468	6.08457729	11.01694365	-0.17006832	5.99377506	14.08003851	-3.81189742	4.08819995	10.87352389	0.17317677	0.61866438	6.31115805	-11.86780978	0.39508542	8.29654314	-0.00909059	-0.88531067	5.82150435	-2.52905548	11.07870143	6.47635786	-1.77813823	10.37681658
6147	61.46000000	10.85365617	1.67210963	6.01019494	10.17991770	0.50995140	5.82342065	13.49228954	-2.82692025	2.75355767	10.71407650	0.21561783	1.00553834	6.51481239	-9.12901949	-0.99622271	8.09028545	-1.47224610	-0.52957231	7.24246983	-2.30029549	12.15513456	5.75799985	0.75415630	11.08170584
6148	61.47000000	10.66313974	1.37556757	5.43487850	9.38452453	1.22625579	5.62893302	13.45376434	-1.91217688	0.20768562	10.73767986	0.23275158	1.36299822	7.73693510	-6.70642579	-2.38406620	8.70248858	-2.86461670	-1.09277290	8.21264292	0.47147961	10.12305301	5.49801238	1.84252962	10.97527428
6149	61.48000000	10.59545224	0.81799678	4.92057430	8.73827805	1.92296674	5.44829040	13.42890057	-1.26754086	-1.80084022	10.56249621	0.26147746	1.66381178	8.84902617	-6.09889827	-3.77130128	9.64909154	-3.68273449	-2.13271157	13.19544377	5.04824382	13.66855988	5.57549718	2.37000708	10.89216497
6150	61.49000000	10.04471157	0.76301132	5.04259860	8.53169747	2.27636570	5.30135425	12.83575637	-0.04503512	-1.16381754	10.11772232	0.31737723	2.15217103	9.49874680	-7.12094958	-3.79549613	10.42956154	-3.39478188	-3.07359210	15.66917688	-1.35167074	14.61987037	5.62444308	2.19631248	10.76486842
6151	61.50000000	9.51048683	0.95446456	5.12068319	8.40506520	2.31853097	5.32222115	11.67570814	1.57694557	-0.28219024	9.96949462	0.52076915	2.82060643	9.75369409	-7.24019699	-2.23463966	11.63646528	-2.26264884	-3.45883873	10.94499970	-4.27408616	10.47761196	5.31836938	1.85446893	10.99837802
6152	61.51000000	9.30658064	1.19487607	4.99716715	8.21934785	2.07516159	5.46719481	10.55460885	3.54265000	0.64359781	10.27921317	1.20991835	3.22625156	10.03670913	-5.32895024	-0.03336643	12.12084572	-0.15386750	-3.48112408	12.36689456	-0.82020656	10.56598736	5.58486641	0.81850766	10.99473272
6153	61.52000000	9.08942738	1.49664116	4.91434172	8.16100764	1.56625998	5.52700003	9.78488945	5.68606784	2.20660908	10.74863038	2.20814332	3.41474019	10.46120459	-2.48416968	0.76867624	11.60810574	2.10343391	-3.12938313	11.25570449	-1.73174362	15.89638402	5.57406270	0.36966252	11.11070110
6154	61.53000000	8.82929059	1.76792410	4.78788198	8.19552488	0.87768213	5.42823187	9.11039292	8.16749571	1.76761169	11.13659741	2.92971996	3.33061893	11.05191032	-0.99719060	0.77719235	10.40020657	4.04445330	-2.52099155	7.34747427	-4.74191361	19.64839537	5.43272568	0.44794793	11.16891903
6155	61.54000000	8.66243610	1.94621906	4.63771075	8.38337877	0.32831118	5.39705151	8.43589565	10.41075662	-1.97071731	11.64439427	2.96588910	2.55470022	10.98754004	-0.95391083	0.69830994	8.60064976	6.16120121	-2.06910525	4.10765630	-5.69903197	19.21127736	5.12790746	0.70918599	11.35848720
6156	61.55000000	8.62054493	2.04324808	4.51452944	8.61041742	0.04574091	5.41282494	7.61468726	11.26342331	-3.16739172	12.04176459	2.06836024	1.07819227	10.47172794	-1.01402837	0.28759280	7.81401917	7.31238402	-1.61951121	-2.85932117	-3.90925107	14.72027743	4.91640935	0.87464248	11.45714439
6157	61.56000000	8.64120375	2.03191096	4.46545756	8.80487098	-0.11012302	5.22178679	6.34454163	10.40049421	0.25415509	12.04543594	0.83593853	-0.34756802	10.35466504	-1.35331416	0.08666690	7.52274972	7.15431426	-1.20404271	-2.96994466	-2.09555598	13.35573379	5.23704855	0.84329307	11.22320594
6158	61.57000000	8.68525884	1.87488042	4.48789571	8.90589755	-0.19772737	4.98362609	5.01172308	8.94511718	3.75136328	11.72297226	-0.19022583	-0.82101170	10.24739348	-2.27911929	-0.02769931	7.89768859	5.70614527	-0.75042054	0.96161628	-2.22640539	14.51919125	5.57073414	0.79982187	10.92743912
6159	61.58000000	8.50021213	1.61779712	4.59944795	8.73226950	-0.20426405	4.82402989	3.85074672	7.52918520	4.13277018	11.19614235	-0.94697789	-0.32973548	9.85129034	-2.74470135	-0.04520811	8.19298477	3.79681485	-0.52873281	0.58630889	-3.71167083	13.24579468	5.33307458	0.81125311	11.01210370
6160	61.59000000	8.07676225	1.23746684	4.64959798	8.46644134	-0.08221494	4.73949103	3.08002302	6.72654973	2.58334087	10.46815077	-1.37052368	0.55830190	9.66423567	-2.11844850	0.23148966	8.35383171	2.29426751	-0.83581248	-1.08584777	-4.51434419	11.19025105	4.98527861	0.92972108	11.14192151
6161	61.60000000	7.71974619	0.94342253	4.51311619	8.18217815	-0.01396813	4.65082753	2.91287528	6.22267309	1.99429586	9.76765492	-1.29281547	1.31588858	9.74490285	-1.01360904	0.47890535	8.69911525	1.03143368	-1.33083817	-1.68707373	-3.61955477	10.09468046	5.21520982	1.00411096	11.07961876
6162	61.61000000	7.65294576	0.86210788	4.32885413	7.82268607	-0.04052923	4.52387139	3.29465992	5.09334838	2.73518458	8.97753967	-1.02305350	1.82933595	9.66747911	-0.11312423	0.89820249	8.69794424	0.13540186	-1.68422664	-1.18116444	-2.09338491	10.05303411	5.37223095	0.88032893	10.86244512
6163	61.62000000	7.85254957	0.91831413	4.27712728	7.48783939	-0.04756493	4.34536270	4.12500996	3.65680877	3.19136510	8.50711006	-0.70127595	2.02348135	9.55358594	0.40534319	1.39891370	8.85097452	-0.33618016	-1.88300194	-0.25608808	-0.92446160	10.31082399	5.36930903	0.84111119	10.82260145
6164	61.63000000	8.18243663	0.97733373	4.30083576	7.26234359	0.07362501	4.19747045	5.04892470	2.33803791	2.84548793	8.47789036	-0.38049987	2.04771026	9.51027377	0.34549110	1.54551198	8.93092438	-0.31820941	-2.01832736	0.36501712	-0.82435163	9.84754694	5.22540158	0.68923376	11.06427833
